<svg width="96" height="29" viewBox="0 0 96 29" fill="none" xmlns="http://www.w3.org/2000/svg">
<path fill-rule="evenodd" clip-rule="evenodd" d="M62.2751 14.0158C65.1396 12.2269 64.4743 8.4286 62.6057 6.94663C60.9834 5.66028 59.6747 5.66702 54.5198 5.69356C53.6911 5.69783 52.7631 5.7026 51.7183 5.7026C51.397 5.7026 51.1358 5.96137 51.1358 6.28019V13.1969C50.7429 13.1969 50.4175 13.1946 50.1467 13.1928C48.9149 13.1843 48.8138 13.1836 48.6298 13.4363C48.5297 13.5738 48.4392 13.6944 48.3588 13.8017L48.3588 13.8018C47.9334 14.3694 47.7878 14.5637 47.9582 14.8949C48.1302 15.2277 48.2554 15.2268 49.8418 15.2153C50.1976 15.2127 50.627 15.2096 51.1468 15.2096V22.7672C51.1468 23.0861 51.4075 23.3446 51.729 23.3448C58.0322 23.3502 58.9804 23.3471 60.1414 23.1753C62.9029 22.7684 64.6301 21.001 64.7614 18.4477C64.8989 15.7993 63.319 14.7262 62.469 14.149C62.399 14.1014 62.3339 14.0572 62.2751 14.0158ZM55.7128 13.1989H55.7128C55.052 13.1963 54.2782 13.1931 53.3655 13.1926V7.78038C53.5562 7.74971 57.4148 7.75566 58.7153 7.78596C59.2305 7.79804 59.8003 7.9027 60.3626 8.08823C61.3907 8.4286 61.9547 9.18521 61.9933 10.2762C62.035 11.4719 61.554 12.3053 60.5636 12.7531C59.5431 13.2144 59.204 13.213 55.7128 13.1989ZM53.3631 15.2029V21.2842C53.3925 21.2877 53.412 21.2903 53.4315 21.2924C53.5246 21.3022 53.6192 21.2977 54.8123 21.3005C55.2417 21.3016 55.6356 21.3036 55.9983 21.3054C58.8341 21.3194 59.7629 21.324 60.8567 20.835C62.0276 20.3102 62.6321 19.2872 62.5586 17.9555C62.4001 15.0766 59.3431 15.1227 55.2676 15.184C54.6537 15.1933 54.0168 15.2029 53.3631 15.2029Z" fill="#8DD83D"/>
<path fill-rule="evenodd" clip-rule="evenodd" d="M66.5438 9.68142C69.9154 3.25308 80.0803 3.90502 82.0391 11.5642C83.4857 17.217 80.8491 23.3452 74.3816 23.7087C66.4864 24.1556 63.5415 15.4054 66.5438 9.68142ZM69.0827 9.79426C66.2391 13.5812 67.5077 21.6356 73.9431 21.6356C78.6514 21.6356 80.9524 17.0392 79.9502 12.4606C78.6769 6.64385 71.9841 5.93186 69.0827 9.79426Z" fill="#8DD83D"/>
<path d="M89.7375 14.1128C95.7267 6.05585 95.566 6.47374 95.3436 6.03688C95.1375 5.63237 94.7982 5.71974 93.6557 5.71974C93.2502 5.71974 93.5804 5.4251 88.413 12.3764C83.2628 5.45521 83.5836 5.7335 83.176 5.7335C82.0289 5.7335 81.6925 5.64761 81.4872 6.05064C81.388 6.24528 81.4077 6.47858 81.5382 6.65406L87.087 14.1136C80.4514 23.077 80.6732 22.5751 80.8958 23.0116C81.1017 23.4146 81.4386 23.3281 82.5874 23.3281C82.7725 23.3281 82.9467 23.2409 83.0564 23.0933L88.4123 15.8921L93.763 23.0803C93.987 23.3809 94.2075 23.3149 95.4017 23.3149C95.6211 23.3149 95.8223 23.1924 95.9215 22.9984C96.1457 22.5589 96.3394 23.0279 89.7375 14.1128Z" fill="#8DD83D"/>
<path d="M43.6894 14.1128C49.6592 6.08761 49.5214 6.47688 49.2983 6.03834C49.1991 5.84371 48.9979 5.72102 48.7782 5.72102C47.5684 5.72102 47.362 5.66004 47.1419 5.95581L42.3632 12.3778C37.2181 5.45295 37.537 5.72994 37.1296 5.72994C35.9746 5.72994 35.6509 5.64777 35.4471 6.04708C35.3481 6.24153 35.3678 6.47483 35.4981 6.65032L41.0449 14.113C34.4056 23.0738 34.6279 22.5713 34.8507 23.0082C35.0566 23.4108 35.3907 23.3249 36.5449 23.3249C36.9511 23.3249 36.5564 23.7027 42.3666 15.893C48.1821 23.7066 47.7871 23.3249 48.1922 23.3249C48.2215 23.3249 49.3793 23.3249 49.3688 23.3249C49.8771 23.3249 50.1366 22.726 49.8001 22.359L43.6894 14.1128Z" fill="#8DD83D"/>
<path d="M8.78532 2.25927C10.3127 2.44461 12.195 3.12314 14.3801 4.27607C14.5181 4.34894 14.6873 4.35099 14.8296 4.27477C16.9839 3.12165 18.8543 2.43959 20.3888 2.24737C20.8599 2.18826 20.9616 1.55082 20.5294 1.35172C16.8276 -0.352587 12.5777 -0.464126 8.64132 1.36418C8.44932 1.45341 8.34001 1.65789 8.37339 1.86554C8.40676 2.07319 8.57476 2.2338 8.78532 2.25927Z" fill="#8DD83D"/>
<path d="M24.5419 23.805C24.5168 23.6232 23.823 19.271 14.8607 11.9247C14.6871 11.7825 14.4366 11.7802 14.2607 11.9196C6.36677 18.1688 3.55408 24.1463 4.84389 25.2476C7.89246 27.8546 10.8092 28.967 14.5969 28.967C18.7131 28.967 21.3221 27.5977 24.1982 25.3879C24.7532 24.9611 24.5516 23.8591 24.5456 23.8282L24.5419 23.805Z" fill="#8DD83D"/>
<path d="M24.619 4.19908C23.0127 3.94347 19.9815 6.64586 18.8068 7.77723C18.6312 7.9464 18.6139 8.22041 18.7667 8.41003C24.544 15.5717 26.0053 19.6611 26.214 21.8303C26.2335 22.0322 26.3811 22.1993 26.5802 22.2451C26.7814 22.2912 26.9871 22.2034 27.093 22.0322C28.483 19.7851 29.2176 17.1846 29.2176 14.5117C29.218 8.6147 25.1492 4.28329 24.619 4.19908Z" fill="#8DD83D"/>
<path d="M10.4025 7.77747C7.03653 4.53486 5.35503 4.18481 4.78822 4.18481C4.71772 4.18481 4.65153 4.18965 4.59134 4.19931C4.49309 4.21493 4.40253 4.26066 4.33184 4.33C-0.369158 8.94955 -1.45385 16.2611 2.11709 22.0328C2.20484 22.1747 2.35953 22.2579 2.52247 22.2579C2.7679 22.2579 2.97284 22.073 2.99609 21.8311C3.20459 19.6617 4.66597 15.5723 10.4427 8.41045C10.5957 8.22046 10.5784 7.94663 10.4025 7.77747Z" fill="#8DD83D"/>
<path d="M5.68034 21.4277C4.88994 22.8452 4.70867 23.6671 4.70332 23.6935C4.63207 24.1203 4.59177 24.9603 4.93463 25.2477C8.04029 27.8548 11.0117 28.9672 14.8703 28.9672C15.5772 28.9672 16.2372 28.925 16.8654 28.8499C12.0317 28.2604 7.9188 25.4154 5.68034 21.4277Z" fill="#79C422"/>
<path d="M3.86914 14.5039C3.86914 10.9496 5.18884 7.69673 7.37439 5.17856C6.02108 4.3186 5.23354 4.18457 4.87806 4.18457C4.80624 4.18457 4.73882 4.1894 4.6775 4.19907C4.57741 4.21469 4.48515 4.26042 4.41314 4.32976C-0.375891 8.94931 -1.48089 16.2608 2.15692 22.0326C2.24631 22.1744 2.4039 22.2577 2.56988 22.2577C2.81992 22.2577 3.02869 22.0727 3.05238 21.8309C3.14368 20.8992 3.47165 19.6122 4.28077 17.8811C4.01412 16.7972 3.86914 15.6675 3.86914 14.5039Z" fill="#79C422"/>
<path d="M10.3773 2.54129C12.2505 1.30005 14.4313 0.467973 16.7843 0.168306C13.8174 -0.21836 11.2244 0.26014 8.80313 1.364C8.60753 1.45323 8.49617 1.65772 8.53017 1.86536C8.61116 2.36022 8.99758 2.17525 10.3773 2.54129Z" fill="#79C422"/>
</svg>
